# xmcd CD database file
#
# Track frame offsets:
#	183
#	22278
#	52125
#	76405
#	107013
#	130120
#	152235
#	185670
#	213718
#	245885
#	277543
#	298200
#
# Disc length: 4382 seconds
#
# Revision: 1
# Processed by: cddbd v1.5.2PL0 Copyright (c) Steve Scherf et al.
# Submitted via: CDex 1.51
#
DISCID=bb111c0c
DTITLE=Bill Evans Trio - The 1960 birdland Sessions
DYEAR=1960
DGENRE=Jazz
TTITLE0=Autumn leaves - March 12, 1960
TTITLE1=Our delight - March 12, 1960
TTITLE2=Beautiful love - Five - March 12, 1960
TTITLE3=Autumn Leaves - March 19, 1960
TTITLE4=Come rain or come shine - March 19, 1960
TTITLE5=Come rain or come shine - April 30, 1960
TTITLE6=Nardis - April 30, 1960
TTITLE7=Blue in green - April 30, 1960
TTITLE8=Autumn leaves - April 30, 1960
TTITLE9=All of you - March 12, 1960
TTITLE10=Come rain or come shine - March 12, 1960
TTITLE11=Speak low - March 12, 1960
EXTD=YEAR: 1960
EXTT0=
EXTT1=
EXTT2=
EXTT3=
EXTT4=
EXTT5=
EXTT6=
EXTT7=
EXTT8=
EXTT9=
EXTT10=
EXTT11=
PLAYORDER=
